<svg width="100%" height="100%" id="svg" viewBox="0 0 1440 400" xmlns="http://www.w3.org/2000/svg" class="transition duration-300 ease-in-out delay-150"><path d="M 0,400 C 0,400 0,133 0,133 C 103.20574162679426,150.96172248803828 206.41148325358853,168.92344497607655 307,157 C 407.58851674641147,145.07655502392345 505.5598086124402,103.26794258373207 599,105 C 692.4401913875598,106.73205741626793 781.3492822966507,152.00478468899522 879,172 C 976.6507177033493,191.99521531100478 1083.043062200957,186.71291866028707 1178,176 C 1272.956937799043,165.28708133971293 1356.4784688995214,149.14354066985646 1440,133 C 1440,133 1440,400 1440,400 Z" stroke="none" stroke-width="0" fill="#35a7ff" fill-opacity="0.53" class="transition-all duration-300 ease-in-out delay-150 path-0"></path><path d="M 0,400 C 0,400 0,266 0,266 C 89.29186602870817,267.98086124401914 178.58373205741634,269.9617224880383 283,273 C 387.41626794258366,276.0382775119617 506.956937799043,280.13397129186603 599,268 C 691.043062200957,255.86602870813397 755.5885167464115,227.50239234449757 842,221 C 928.4114832535885,214.49760765550243 1036.688995215311,229.85645933014357 1140,241 C 1243.311004784689,252.14354066985643 1341.6555023923445,259.0717703349282 1440,266 C 1440,266 1440,400 1440,400 Z" stroke="none" stroke-width="0" fill="#35a7ff" fill-opacity="1" class="transition-all duration-300 ease-in-out delay-150 path-1"></path></svg>