<svg width="100%" height="100%" id="svg" viewBox="0 0 1440 600" xmlns="http://www.w3.org/2000/svg" class="transition duration-300 ease-in-out delay-150"><path d="M 0,600 C 0,600 0,200 0,200 C 79.38755980861242,201.11004784688996 158.77511961722485,202.2200956937799 255,207 C 351.22488038277515,211.7799043062201 464.2870813397129,220.22966507177034 557,205 C 649.7129186602871,189.77033492822966 722.0765550239234,150.86124401913875 811,136 C 899.9234449760766,121.13875598086125 1005.4066985645932,130.32535885167465 1113,145 C 1220.5933014354068,159.67464114832535 1330.2966507177034,179.83732057416267 1440,200 C 1440,200 1440,600 1440,600 Z" stroke="none" stroke-width="0" fill="#6bf178" fill-opacity="0.53" class="transition-all duration-300 ease-in-out delay-150 path-0"></path><path d="M 0,600 C 0,600 0,400 0,400 C 102.91866028708131,407.58851674641147 205.83732057416262,415.17703349282294 289,414 C 372.1626794258374,412.82296650717706 435.5693779904308,402.88038277511964 539,388 C 642.4306220095692,373.11961722488036 785.8851674641147,353.30143540669854 903,355 C 1020.1148325358853,356.69856459330146 1110.88995215311,379.9138755980861 1196,391 C 1281.11004784689,402.0861244019139 1360.5550239234449,401.0430622009569 1440,400 C 1440,400 1440,600 1440,600 Z" stroke="none" stroke-width="0" fill="#6bf178" fill-opacity="1" class="transition-all duration-300 ease-in-out delay-150 path-1" transform="rotate(-180 720 300)"></path></svg>