<svg id="wave" style="transform:rotate(0deg); transition: 0.3s" viewBox="0 0 1440 190" version="1.1" xmlns="http://www.w3.org/2000/svg"><defs><linearGradient id="sw-gradient-0" x1="0" x2="0" y1="1" y2="0"><stop stop-color="rgba(107, 241, 120, 1)" offset="0%"></stop><stop stop-color="rgba(107, 241, 120, 1)" offset="100%"></stop></linearGradient></defs><path style="transform:translate(0, 0px); opacity:1" fill="url(#sw-gradient-0)" d="M0,133L48,110.8C96,89,192,44,288,34.8C384,25,480,51,576,50.7C672,51,768,25,864,19C960,13,1056,25,1152,50.7C1248,76,1344,114,1440,129.8C1536,146,1632,139,1728,139.3C1824,139,1920,146,2016,148.8C2112,152,2208,152,2304,145.7C2400,139,2496,127,2592,101.3C2688,76,2784,38,2880,19C2976,0,3072,0,3168,0C3264,0,3360,0,3456,9.5C3552,19,3648,38,3744,41.2C3840,44,3936,32,4032,44.3C4128,57,4224,95,4320,107.7C4416,120,4512,108,4608,101.3C4704,95,4800,95,4896,95C4992,95,5088,95,5184,85.5C5280,76,5376,57,5472,50.7C5568,44,5664,51,5760,50.7C5856,51,5952,44,6048,53.8C6144,63,6240,89,6336,110.8C6432,133,6528,152,6624,142.5C6720,133,6816,95,6864,76L6912,57L6912,190L6864,190C6816,190,6720,190,6624,190C6528,190,6432,190,6336,190C6240,190,6144,190,6048,190C5952,190,5856,190,5760,190C5664,190,5568,190,5472,190C5376,190,5280,190,5184,190C5088,190,4992,190,4896,190C4800,190,4704,190,4608,190C4512,190,4416,190,4320,190C4224,190,4128,190,4032,190C3936,190,3840,190,3744,190C3648,190,3552,190,3456,190C3360,190,3264,190,3168,190C3072,190,2976,190,2880,190C2784,190,2688,190,2592,190C2496,190,2400,190,2304,190C2208,190,2112,190,2016,190C1920,190,1824,190,1728,190C1632,190,1536,190,1440,190C1344,190,1248,190,1152,190C1056,190,960,190,864,190C768,190,672,190,576,190C480,190,384,190,288,190C192,190,96,190,48,190L0,190Z"></path></svg>